<svg id="圖層_2" data-name="圖層 2" xmlns="http://www.w3.org/2000/svg" viewBox="0 0 297.64 125.33"><defs><style>.cls-1,.cls-3{fill:#231815;}.cls-2,.cls-4{fill:#fff;}.cls-3,.cls-5{stroke:#231815;}.cls-3,.cls-4,.cls-5{stroke-miterlimit:10;}.cls-4{stroke:#fff;}.cls-5{fill:none;stroke-width:7px;}</style></defs><path class="cls-1" d="M119.13,88.34a3.93,3.93,0,0,1,.72,2.38,3.5,3.5,0,0,1-.72,2.3,3.89,3.89,0,0,1-1.19.89,3.55,3.55,0,0,1,1.8,1.37,4.12,4.12,0,0,1,.61,2.29,4.5,4.5,0,0,1-.7,2.49,4.2,4.2,0,0,1-1.1,1.23,4.32,4.32,0,0,1-1.77.78,10.81,10.81,0,0,1-2.2.21h-7V86.67h7.55A4.78,4.78,0,0,1,119.13,88.34Zm-8.47,1v3.44h3.79a3.1,3.1,0,0,0,1.65-.39,1.46,1.46,0,0,0,.64-1.37,1.39,1.39,0,0,0-.84-1.44,6,6,0,0,0-1.85-.24Zm0,6v4.16h3.79A3.77,3.77,0,0,0,116,99.3a2,2,0,0,0,1-2,1.67,1.67,0,0,0-1-1.67,4,4,0,0,0-1.56-.27Z"/><path class="cls-1" d="M133.16,87.08a3.82,3.82,0,0,1,1.46,1.09,4.69,4.69,0,0,1,.78,1.31,4.24,4.24,0,0,1,.29,1.64,4.63,4.63,0,0,1-.56,2.19,3.12,3.12,0,0,1-1.85,1.52,2.93,2.93,0,0,1,1.53,1.23,5.16,5.16,0,0,1,.45,2.44v1a7.47,7.47,0,0,0,.09,1.45,1.25,1.25,0,0,0,.6.89v.39h-3.6c-.1-.34-.17-.62-.21-.83a6.72,6.72,0,0,1-.14-1.35l0-1.45a3,3,0,0,0-.52-2,2.64,2.64,0,0,0-1.86-.5h-3.18v6.12h-3.19V86.67h7.47A6.94,6.94,0,0,1,133.16,87.08Zm-6.74,2.31v4.19h3.51a3.75,3.75,0,0,0,1.57-.26,1.75,1.75,0,0,0,.92-1.75,2,2,0,0,0-.89-1.91,3.31,3.31,0,0,0-1.51-.27Z"/><path class="cls-1" d="M150.36,89.44H142.1v3.31h7.58v2.71H142.1v4h8.64v2.8H138.91V86.67h11.45Z"/><path class="cls-1" d="M155.41,86.67l2.06,8.94.45,2.49.45-2.44,1.76-9h3.44l1.86,8.94.47,2.49.49-2.39,2.08-9h3.32l-4.39,15.61h-3.13l-1.88-9.12-.55-3-.55,3-1.89,9.12h-3L152,86.67Z"/><path class="cls-1" d="M181.27,88.3a6.45,6.45,0,0,1,4.8-1.92q3.9,0,5.7,2.58a5.6,5.6,0,0,1,1.07,2.91h-3.26a4.44,4.44,0,0,0-.8-1.69,3.53,3.53,0,0,0-5.33.42,7,7,0,0,0-1,4.06,6.18,6.18,0,0,0,1.06,3.93,3.31,3.31,0,0,0,2.7,1.31,3.06,3.06,0,0,0,2.56-1.12,4.79,4.79,0,0,0,.81-1.81h3.24a7,7,0,0,1-2.14,4.15,6.22,6.22,0,0,1-4.42,1.6,6.63,6.63,0,0,1-5.24-2.16,8.71,8.71,0,0,1-1.9-6A8.67,8.67,0,0,1,181.27,88.3Z"/><path class="cls-1" d="M207.47,100.9a8.1,8.1,0,0,1-10.23,0,8.44,8.44,0,0,1-2.38-6.44c0-2.86.8-5,2.38-6.44a8.1,8.1,0,0,1,10.23,0q2.35,2.15,2.36,6.44A8.47,8.47,0,0,1,207.47,100.9Zm-2-2.38a7.8,7.8,0,0,0,0-8.12A3.73,3.73,0,0,0,202.35,89a3.78,3.78,0,0,0-3.09,1.43,7.76,7.76,0,0,0,0,8.13,4,4,0,0,0,6.17,0Z"/><path class="cls-1" d="M212.32,86.7h11.13v2.74h-7.89V93h6.91v2.71h-6.91v6.54h-3.24Z"/><path class="cls-1" d="M225.57,86.7H236.7v2.74h-7.89V93h6.91v2.71h-6.91v6.54h-3.24Z"/><path class="cls-1" d="M250.36,89.44H242.1v3.31h7.58v2.71H242.1v4h8.64v2.8H238.91V86.67h11.45Z"/><path class="cls-1" d="M264.83,89.44h-8.26v3.31h7.58v2.71h-7.58v4h8.64v2.8H253.38V86.67h11.45Z"/><path class="cls-1" d="M116.19,54.84a47.67,47.67,0,0,0-9.39-5.45l3.13-4.49a45.79,45.79,0,0,1,9.59,5Zm-7.67,18.23a140.64,140.64,0,0,0,9.54-15.9l4.39,3.88a178.19,178.19,0,0,1-8.93,16Zm10.65-32a45.36,45.36,0,0,0-9.34-5.6l3.28-4.45c3.18,1.32,7.47,3.44,9.54,5.15Zm26.26,30.5c2.82,0,3.38-.86,3.78-5a15.2,15.2,0,0,0,5.15,2c-.81,6.11-2.57,8-8.48,8H134c-7.22,0-9.23-1.71-9.23-7.82V49.9c-.61.7-1.22,1.41-1.82,2.07a32.36,32.36,0,0,0-4.19-4.7c4.14-3.89,7.62-10.25,9.59-16.71L134,32c-.46,1.32-.91,2.58-1.42,3.89H152v2.47c0,17.07,0,23.18-1.26,25a4.49,4.49,0,0,1-3.44,2.27,31.83,31.83,0,0,1-5.7.25,15.22,15.22,0,0,0-1.11-4.44h-10.2v7.32c0,2.37.55,2.83,4.09,2.83ZM130.18,41.26c-.66,1.31-1.37,2.58-2.12,3.79h15v15.6h1.16a1.51,1.51,0,0,0,1.47-.76c.6-1.11.65-5.7.71-18.63ZM137.9,50h-7.57v6.51h7.57Z"/><path class="cls-1" d="M174.61,65.75V70H170V33.89h12.17V65.75Zm0-27.11V61h3V38.64ZM199.5,40.3s0,1.82-.05,2.53c-.55,21.76-1,29.38-2.52,31.55a4.54,4.54,0,0,1-3.23,2.38,26.56,26.56,0,0,1-4.7.2,14.33,14.33,0,0,0-1.36-5.3,28,28,0,0,0,3.23.15,1.45,1.45,0,0,0,1.46-1c1-1.36,1.47-7.52,1.92-25.25h-2.82c-.41,14.29-2,25.1-8.23,32.32A15.14,15.14,0,0,0,179.31,74c5.5-6.26,6.76-15.65,7.07-28.43h-2.93V40.3h3c0-3,0-6.21,0-9.54h5.1c0,3.28,0,6.46-.05,9.54Zm14.8-4.09V75.29h-5.05V71.81h-3.69V75.7h-4.79V36.21Zm-5.05,30.3V41.46h-3.69V66.51Z"/><path class="cls-1" d="M234.39,64.49h-8.53V69h-5.15V34.9h13.68ZM225.86,40.4V59h3.33V40.4Zm17.72-9.49h5.81V50.45c0,8.48-.91,20.55-6.61,27.82a22.11,22.11,0,0,0-4.8-3.53,25.5,25.5,0,0,0,4.49-10.45c-2.12.6-4.19,1.16-6.06,1.66l-1.11-6.11c2.12-.3,4.95-.81,8-1.36.15-1.36.2-2.68.25-4h-6.06v-5.4h6.11V43.74h-6.81V38.33h6.81ZM266,65.25h-8V77.62h-5.85V30.81h5.85v7.52h7.43v5.41h-7.43v5.35h6.31v5.35h-6.31v5.35h8Z"/><ellipse class="cls-1" cx="52.73" cy="64.58" rx="24.2" ry="7.88"/><polygon class="cls-1" points="29.33 102.72 74.52 102.72 76.93 64.58 28.53 64.58 29.33 102.72"/><ellipse class="cls-2" cx="53.13" cy="64.58" rx="14.63" ry="5.31"/><ellipse class="cls-3" cx="36.13" cy="38.32" rx="7.58" ry="9.87" transform="translate(-16.27 32.96) rotate(-40.85)"/><path class="cls-4" d="M39.24,41.91a3,3,0,0,1-2.67-1.06,5.67,5.67,0,0,1-.67-1.77,9.93,9.93,0,0,0-1-2.81,3.13,3.13,0,0,0-1.84-1.11L33,34.74a3.55,3.55,0,0,1,1.29.13,2.66,2.66,0,0,1,1.49,1.05,5.45,5.45,0,0,1,.62,1.45c.06.18.17.59.34,1.22a7.49,7.49,0,0,0,.7,1.89,2,2,0,0,0,.89.73,5,5,0,0,0,.82.24Z"/><ellipse class="cls-3" cx="57.14" cy="45.04" rx="7.84" ry="6.03" transform="translate(3.81 94.53) rotate(-81.11)"/><path class="cls-4" d="M56.56,48.77a2.45,2.45,0,0,1-.73-2.17,4.61,4.61,0,0,1,.73-1.31,8.34,8.34,0,0,0,1.21-2,2.51,2.51,0,0,0-.28-1.68l.22-.26a2.79,2.79,0,0,1,.58.85,2.06,2.06,0,0,1,.13,1.44,4.22,4.22,0,0,1-.56,1.12c-.08.13-.27.41-.56.83a5.84,5.84,0,0,0-.79,1.4,1.65,1.65,0,0,0,0,.91,3.74,3.74,0,0,0,.28.63Z"/><ellipse class="cls-5" cx="75.19" cy="81.07" rx="14.47" ry="8.6"/></svg>